inDegrees=no
num_controls=7
num_derivatives=13
num_iterations=18
num_multipliers=7
num_parameters=0
num_slacks=7
num_states=26
objective=0.461984
objective_accelerations=0.000000
objective_balance=0.009966
objective_effort=0.015796
objective_height=0.436222
objective_ligament=0.000000
solver_duration=267.189348
status=Solve_Succeeded
success=true
DataType=double
version=3
OpenSimVersion=4.5
endheader
time	/jointset/ground_pelvis/pelvis_tilt/value	/jointset/ground_pelvis/pelvis_tx/value	/jointset/ground_pelvis/pelvis_ty/value	/jointset/hip_l/hip_flexion_l/value	/jointset/hip_l/hip_adduction_l/value	/jointset/hip_l/hip_rotation_l/value	/jointset/back/lumbar_extension/value	/jointset/patellofemoral_l/patellar_flexion_l/value	/jointset/knee_l/knee_flexion_l/value	/jointset/knee_l/knee_adduction_l/value	/jointset/knee_l/knee_rotation_l/value	/jointset/ankle_l/ankle_angle_l/value	/jointset/subtalar_l/subtalar_angle_l/value	/jointset/ground_pelvis/pelvis_tilt/speed	/jointset/ground_pelvis/pelvis_tx/speed	/jointset/ground_pelvis/pelvis_ty/speed	/jointset/hip_l/hip_flexion_l/speed	/jointset/hip_l/hip_adduction_l/speed	/jointset/hip_l/hip_rotation_l/speed	/jointset/back/lumbar_extension/speed	/jointset/patellofemoral_l/patellar_flexion_l/speed	/jointset/knee_l/knee_flexion_l/speed	/jointset/knee_l/knee_adduction_l/speed	/jointset/knee_l/knee_rotation_l/speed	/jointset/ankle_l/ankle_angle_l/speed	/jointset/subtalar_l/subtalar_angle_l/speed	/forceset/tau_hip_flexion_l	/forceset/tau_hip_adduction_l	/forceset/tau_hip_rotation_l	/forceset/tau_knee_flexion_l	/forceset/tau_ankle_angle_l	/forceset/tau_subtalar_angle_l	/forceset/tau_lumbar_extension	lambda_cid13_p0	lambda_cid13_p1	lambda_cid13_p2	lambda_cid13_p3	lambda_cid13_p4	lambda_cid13_p5	lambda_cid14_p0	/jointset/ground_pelvis/pelvis_tilt/accel	/jointset/ground_pelvis/pelvis_tx/accel	/jointset/ground_pelvis/pelvis_ty/accel	/jointset/hip_l/hip_flexion_l/accel	/jointset/hip_l/hip_adduction_l/accel	/jointset/hip_l/hip_rotation_l/accel	/jointset/back/lumbar_extension/accel	/jointset/patellofemoral_l/patellar_flexion_l/accel	/jointset/knee_l/knee_flexion_l/accel	/jointset/knee_l/knee_adduction_l/accel	/jointset/knee_l/knee_rotation_l/accel	/jointset/ankle_l/ankle_angle_l/accel	/jointset/subtalar_l/subtalar_angle_l/accel	gamma_cid13_p0	gamma_cid13_p1	gamma_cid13_p2	gamma_cid13_p3	gamma_cid13_p4	gamma_cid13_p5	gamma_cid14_p0
0	-0.1152305620998709	0.037081282322436	0.9042191374997975	0.3774924667018715	-0.1484772639270492	-0.1022517638055609	-0.01265067647494873	0.03223648243717098	0.03223648243721463	0.05847939792297528	-0.008601480661689569	-0.04231377076293093	0.09808267881228731	0	0	0	0	0	0	0	0	0	0	0	0	0	0.1835529433017069	-0.03786861014703627	0.01715057610579985	-0.2229797615078036	0.209577344277963	-0.03462378258605286	-0.162277660930806	33.97149473382508	16.31305445277138	-11.25483523557839	21.70716268455906	-440.462890320459	-10.12605917295323	-34.4243153785357	12.83278377613691	-4.790648349122035	-2.167926978531876	18.42995131919102	-26.75928673678306	11.07474871706037	-34.46185371964163	51.72311770857769	51.72311770857768	-46.30281090434352	1.851776178289533	16.59273524174008	-21.93069707195042	-7.308725422239141e-07	-8.809036583585996e-05	0.0001130034248794642	-2.207087865191921e-05	6.241121609040883e-05	-8.674370991405588e-05	-1.409384442378549e-05
0.01	-0.1147500557195001	0.03688547461608369	0.9041324509050113	0.3782182592500116	-0.1495249022760126	-0.1018651763724542	-0.01401944956753718	0.03420217682910906	0.03420217682916084	0.05665544295432743	-0.008485307387645347	-0.04170390855628323	0.0972121652830067	0.07919986627951324	-0.03486680430371522	-0.01540826502382495	0.1285486972757749	-0.1807881914923801	0.06388411368534987	-0.2376493090186018	0.335017359893078	0.3350173598930736	-0.3155359206848633	0.02286197197500461	0.1015316245370177	-0.1513553858781785	0.1287531030483852	0.0140672947846093	0.01714736116799531	-0.251384523003211	0.265932896684783	-0.04926204467619218	-0.08324173876679354	43.66591640778528	21.64147249271978	-12.8683732731479	10.78613433453744	-563.085768997866	-14.70952912929763	-34.48607510612793	2.925315074868903	-2.194900101296438	-0.925435931131586	7.574161239337561	-9.43205852426304	2.007227563485128	-13.0006730694295	15.67563612409993	15.67563612409851	-16.79067923076076	2.424793788195649	3.865710193891212	-8.325642782304842	-2.032039677349735e-06	-4.880391059656044e-05	6.487078035558166e-05	-1.164283580320506e-05	3.527190698059391e-05	-4.964868115076821e-05	-8.592798593336804e-06
0.02	-0.1139852052721211	0.03646895814063141	0.9039520497266151	0.3797309052323366	-0.1515191171737045	-0.1012473508286425	-0.01668155646562165	0.03777496301884642	0.03777496301883304	0.05315378946287441	-0.0081562371776552	-0.0406922632774224	0.09551056120763604	0.0568688133993793	-0.04414175381998958	-0.01874291672198126	0.157370686854145	-0.1893153097366657	0.04624762213924158	-0.2586667610956088	0.3214183595632215	0.3214183595632124	-0.3355397045778627	0.04257938719358616	0.08035661444236668	-0.1662181092184924	0.07395326279417677	0.06600319971634952	0.01714414622975553	-0.2797892844989906	0.32228844909156	-0.06390030676623899	-0.004205816603423939	53.44095644108922	26.89077586241098	-14.3940160883978	-1.007607438923248	-685.5399753098658	-19.07720678966624	-34.60172014557353	-7.473400055793062	0.3277226083662819	0.2467956866018183	-1.515390220289473	7.692927912835723	-5.229372329231249	8.864517668676868	-18.00015433600944	-18.00015433600944	12.80361645402902	1.222864827004867	-7.948591684593623	5.3678354356224	-3.333206812475557e-06	-9.517455357260915e-06	1.673813583169913e-05	-1.214792954490903e-06	8.13259787077899e-06	-1.255365238748054e-05	-3.091752762888115e-06
0.03	-0.1137215268681896	0.0360393103302692	0.9037765409995451	0.3812332817115108	-0.1530690621079878	-0.1009995357314612	-0.01892176480111628	0.04023055938775909	0.04023055938780715	0.05037634161707304	-0.007690386339180478	-0.04022372420734086	0.0940938848192671	0.003101473464436698	-0.04220602070688484	-0.01634954738477161	0.1422818004330108	-0.1247270587010965	0.006412989257601641	-0.199391877688501	0.1821433308740386	0.1821433308740349	-0.2263608922669562	0.05004448362188564	0.0189366974281153	-0.1195263784470666	0.07184726221252381	0.05906027939251197	0.01579942757180717	-0.2629198554901001	0.3042942666844429	-0.06083980071320216	-0.00979069044197251	49.67750692146394	25.53424957720348	-13.39385739308396	-2.551252542335461	-660.1228096926492	-18.01589334523944	-34.68617667302433	-3.24396349779559	0.06356596938943131	0.2385166190383289	-1.629669890846058	5.232590003139876	-2.898827297105774	2.956427922427371	-10.02421851325543	-10.0242185132558	9.013970645908834	0.4235506055475502	-4.401566060928275	3.958008242465641	-1.968019924985333e-06	-4.528284741892985e-06	8.303918609312747e-06	-4.420240855101512e-07	3.848689888810193e-06	-6.266860942146765e-06	-1.640302623979152e-06
0.04	-0.1137786343705963	0.03561643331235552	0.9036255477781984	0.3825599629189067	-0.1540949612711096	-0.1010577306689871	-0.02086973345338887	0.04166679719420592	0.04166679719421385	0.04849847329973395	-0.007166840825508761	-0.04020195917760995	0.09307175900752503	-0.007288367888741403	-0.04278759533028125	-0.01383981557729947	0.1222316324989442	-0.084506155496649	-0.01495438480302666	-0.2002188244534052	0.1175466470695593	0.117546647069561	-0.1556237989045648	0.05411832224238064	-0.008998193629638326	-0.08730799389313412	0.06974126163035309	0.0521173590686999	0.01445470891346244	-0.246050426481427	0.2863000842773005	-0.05777929466014383	-0.01537556428090231	45.84198790989819	24.21507930961225	-12.42785048640159	-3.573298474190929	-635.2744891777782	-17.06512503101574	-34.73862333586008	1.20209966055936	-0.1757389389340054	0.270068180654269	-2.507646522875441	2.81945834661124	-1.535920565028847	-3.155848365726013	-3.06448535906878	-3.06448535906878	5.115272664325688	0.5446132654438963	-1.25158649329424	2.473166192123502	-5.478566658947786e-07	-2.462746342349896e-07	6.882256611840131e-07	1.316669694554781e-07	3.602729092069755e-08	-6.152908848120363e-07	-2.723493034524525e-07
0.05	-0.1137839640299231	0.03518239950218137	0.9035016606629573	0.3836488973394058	-0.154793703397188	-0.1012720381439595	-0.02302691267486777	0.04269537378862969	0.04269537378868297	0.04721005521051568	-0.006611206716082511	-0.04034710567157576	0.09232977086173172	0.007241949914927847	-0.04374463466679144	-0.0107936582288038	0.09420494922894425	-0.05481661939790836	-0.02732848348002962	-0.2312440563405417	0.0883414025026326	0.08834140250263359	-0.1011608359876124	0.05631826946870928	-0.01945678330702628	-0.06049975098185658	0.06139205374973336	0.05367481195680848	0.013851551374698	-0.239551397122595	0.2828696104865326	-0.05780399112977009	-0.008006023103579556	44.8389805168564	24.09160758661528	-12.05428178806656	-5.635512965760705	-636.0040243641653	-16.93104675955069	-34.77788209988524	1.731357288324819	-0.01447565660803938	0.3434582941825343	-3.152796362722392	3.107490515584997	-1.001412446806251	-3.079916076143905	-2.822590986801221	-2.82259098680235	5.746701195560077	-0.04589147813181359	-0.8569345212895103	2.873113357586747	-3.322912715595254e-07	-3.048675244112273e-07	5.571674676053345e-07	1.130137579104321e-08	1.157063880497823e-07	-4.685933835045237e-07	-1.948616940023761e-07
